<?xml version="1.0" encoding="utf-8"?>
<!-- Generator: Adobe Illustrator 25.0.0, SVG Export Plug-In . SVG Version: 6.00 Build 0)  -->
<svg version="1.1" id="thumbsupsign_Light" xmlns="http://www.w3.org/2000/svg" xmlns:xlink="http://www.w3.org/1999/xlink" x="0px"
	 y="0px" viewBox="0 0 800 800" style="enable-background:new 0 0 800 800;" xml:space="preserve">
<style type="text/css">
	.st0{fill:#FFFFFF;}
	.st1{fill:#BBFB05;}
</style>
<path id="Path" class="st0" d="M0,0h250v250h-50v50h-50v50h-50v100H0V0z"/>
<path id="Path-2" class="st1" d="M250,0h100v50h-50v200h-50V0z"/>
<path id="Path-3" class="st0" d="M350,0h450v800H700V700h50V350h-50v-50H450V100h-50V50h-50V0z"/>
<path id="Path-4" class="st0" d="M300,50h50v50h50v150h-50v100h50v50h50v100h-50v50H250v50h150v-50h50v200H200v-50h-50v-50h-50v50H0
	V500h50v100h50V450h50V350h50v-50h50v-50h50V50z"/>
<path id="Path-5" class="st1" d="M350,50h50v50h-50V50z"/>
<path id="Path-6" class="st1" d="M400,100h50v200h250v50h-50v50H500v50h200V350h50v350h-50v100H500v-50h-50V550h-50v-50h50V400h-50
	v-50h-50V250h50V100z"/>
<path id="Path-7" class="st1" d="M200,250h50v50h-50V250z"/>
<path id="Path-8" class="st1" d="M150,300h50v50h-50V300z"/>
<path id="Path-9" class="st1" d="M100,350h50v100h-50V350z"/>
<path id="Path-10" class="st0" d="M650,350h50v100H500v-50h150V350z"/>
<path id="Path-11" class="st1" d="M0,450h100v150H50V500H0V450z"/>
<path id="Path-12" class="st0" d="M500,500h200v50H500V500z"/>
<path id="Path-13" class="st1" d="M250,550h150v50H250V550z"/>
<path id="Path-14" class="st0" d="M500,600h200v50H500V600z"/>
<path id="Path-15" class="st1" d="M100,650h50v50h50v50H0v-50h100V650z"/>
<path id="Path-16" class="st0" d="M500,700h150v50H500V700z"/>
<path id="Path-17" class="st0" d="M0,750h200v50H0V750z"/>
<path id="Path-18" class="st1" d="M200,750h250v50H200V750z"/>
<path id="Path-19" class="st0" d="M450,750h50v50h-50V750z"/>
</svg>
