<?xml version="1.0" encoding="utf-8"?>
<!-- Generator: Adobe Illustrator 25.0.0, SVG Export Plug-In . SVG Version: 6.00 Build 0)  -->
<svg version="1.1" id="Layer_1" xmlns="http://www.w3.org/2000/svg" xmlns:xlink="http://www.w3.org/1999/xlink" x="0px" y="0px"
	 viewBox="0 0 800 800" style="enable-background:new 0 0 800 800;" xml:space="preserve">
<path d="M190.4,651.5h83.7v83.7h-83.7V651.5z"/>
<path d="M525.2,651.5h83.7v83.7h-83.7V651.5z"/>
<path d="M190.5,65.7h83.7v83.7h-83.7V65.7z"/>
<path d="M525.2,65.7h83.7v83.7h-83.7V65.7z"/>
<path d="M609.1,400.5V233.1h-83.9v-83.8h-83.7v83.8h-83.7v-83.8h-83.7v83.8h-83.7v167.4h-83.7v83.7h83.7v83.8h83.7v83.6h83.7v-83.6
	h83.7v83.6h83.7v-83.6h83.9v-83.8h83.6v-83.7H609.1z M357.8,400.5h-83.7v-83.7h83.7V400.5z M525.2,400.5h-83.7v-83.7h83.7V400.5z"/>
<path d="M692.6,233.1h83.8v167.5h-83.8V233.1z"/>
<path d="M23.1,233h83.8v167.5H23.1V233z"/>
</svg>
